<svg xmlns="http://www.w3.org/2000/svg" version="1.1" xmlns:xlink="http://www.w3.org/1999/xlink" xmlns:svgjs="http://svgjs.com/svgjs" width="3840" height="2160" preserveAspectRatio="none" viewBox="0 0 3840 2160"><g mask="url(&quot;#SvgjsMask1232&quot;)" fill="none"><rect width="3840" height="2160" x="0" y="0" fill="url(#SvgjsLinearGradient1233)"></rect><path d="M3780 405C3738.41 405 3707.03 466.58 3707.03 540C3707.03 741.77 3736.59 955.38 3780 955.38C3824.02 955.38 3881.89 737.2 3881.89 540C3881.89 462.01 3825.84 405 3780 405" stroke="rgba(194, 51, 151, 0.58)" stroke-width="2"></path><path d="M4074.55 0C4214.23 51.35 4261.04 68.83 4320 198.53C4383.77 338.83 4320 369.26 4320 540C4320 810 4320 810 4320 1080C4320 1350 4320 1350 4320 1620C4320 1873.13 4447.97 2043.07 4320 2126.25C4177.97 2218.57 4009.75 1958.71 3780 1971C3694.21 1975.59 3774.91 2129.9 3688.92 2160C3504.91 2224.4 3464.46 2160 3240 2160C2970 2160 2970 2160 2700 2160C2497.5 2160 2472.55 2213.27 2295 2160C2202.55 2132.27 2231.43 1998 2160 1998C2081.9 1998 2098.59 2129.21 1995.95 2160C1828.59 2210.21 1807.97 2160 1620 2160C1350 2160 1350 2160 1080 2160C810 2160 810 2160 540 2160C330.75 2160 312.19 2204.01 121.5 2160C42.19 2141.7 17.94 2115.11 0 2035.38C-42.81 1845.11 0 1827.69 0 1620C0 1350 0 1350 0 1080C0 810 0 810 0 540C0 270 -135 135 0 0C135 -135 270 0 540 0C810 0 810 0 1080 0C1350 0 1350 0 1620 0C1890 0 1890 0 2160 0C2430 0 2430 0 2700 0C2970 0 2970 0 3240 0C3510 0 3510 0 3780 0C3927.27 0 3944.23 -47.91 4074.55 0" stroke="rgba(194, 51, 151, 0.58)" stroke-width="2"></path><path d="M2700 720C2633.15 720 2588.28 924.27 2588.28 1080C2588.28 1131.27 2642.4 1134 2700 1134C2779.26 1134 2862 1142.5 2862 1080C2862 935.5 2770.01 720 2700 720" stroke="rgba(194, 51, 151, 0.58)" stroke-width="2"></path><path d="M360 0C450.93 162.37 244.92 305.36 302.4 540C334.92 672.74 427.45 630.47 540 734.75C718.88 900.47 710.72 909.34 885.25 1080C980.72 1173.35 975.36 1262.77 1080 1262.77C1207.74 1262.77 1323.45 1213.79 1350 1080C1395.17 852.41 1313.05 799.39 1223.44 540C1178.05 408.6 1183.03 388.75 1080 298.42C875.06 118.75 607.5 80.85 607.5 0C607.5 -68.36 843.75 0 1080 0C1257.19 0 1265.44 -32.04 1434.38 0C1535.44 19.17 1530.62 102.41 1620 102.41C1692.5 102.41 1677.23 15.34 1758.14 0C1947.23 -35.86 1959.07 0 2160 0C2430 0 2430 0 2700 0C2964 0 2966.93 -6.53 3228 0C3236.93 0.22 3231.55 13.5 3240 13.5C3282.55 13.5 3284.58 1.14 3330 0C3554.58 -5.61 3555 0 3780 0C3804.55 0 3829.09 -12.5 3829.09 0C3829.09 21.25 3800.48 31.19 3780 67.5C3648.23 301.19 3663.31 310.42 3524.59 540C3393.31 757.27 3392.03 961.2 3240 961.2C3077.11 961.2 3076.33 742.16 2894.75 540C2806.33 441.56 2819.44 371.86 2700 360C2452.06 335.38 2414.55 389.62 2160 467.03C2118.59 479.62 2111.28 496.4 2108.08 540C2088.78 802.89 2091.46 820.38 2115 1080C2117.42 1106.75 2134.93 1100.77 2160 1112.73C2427.43 1240.27 2423.26 1338.12 2700 1359C2963.26 1378.87 2993.73 1140.07 3240 1194.23C3533.73 1258.83 3575.96 1627.81 3780 1596.52C3948.37 1570.7 3896.1 1342.88 3984.83 1080C4074.4 814.62 4018.13 781.4 4136.6 540C4185.71 439.93 4263.21 397.06 4320 397.06C4354.91 397.06 4320 468.53 4320 540C4320 810 4320 810 4320 1080C4320 1350 4320 1350 4320 1620C4320 1767.65 4408.16 1913.11 4320 1915.31C4138.16 1919.86 3982.53 1571.06 3780 1633.5C3585.67 1693.41 3707.5 1983.3 3526.27 2160C3437.5 2246.55 3383.14 2160 3240 2160C2970 2160 2970 2160 2700 2160C2567.82 2160 2538.35 2222.91 2435.63 2160C2268.35 2057.54 2305.84 1829.25 2160 1829.25C2000.55 1829.25 2013.13 2044.81 1825.06 2160C1743.13 2210.18 1722.53 2160 1620 2160C1350 2160 1350 2160 1080 2160C810 2160 810 2160 540 2160C415.13 2160 391.57 2215.86 290.25 2160C121.57 2067.01 91.69 2032.89 0 1862.31C-53.44 1762.89 0 1741.15 0 1620C0 1350 0 1350 0 1080C0 810 0 810 0 540C0 270 -108 162 0 0C72 -108 299.73 -107.63 360 0" stroke="rgba(194, 51, 151, 0.58)" stroke-width="2"></path><path d="M540 1518.75C486.89 1518.75 429.55 1568.79 429.55 1620C429.55 1672.24 486.98 1725.65 540 1725.65C588.93 1725.65 633.46 1672.33 633.46 1620C633.46 1568.88 588.84 1518.75 540 1518.75" stroke="rgba(194, 51, 151, 0.58)" stroke-width="2"></path><path d="M1620 1463.23C1568.49 1463.23 1526.54 1544.09 1526.54 1620C1526.54 1684.79 1569.24 1744.62 1620 1744.62C1676.72 1744.62 1741.5 1685.76 1741.5 1620C1741.5 1545.06 1675.97 1463.23 1620 1463.23" stroke="rgba(194, 51, 151, 0.58)" stroke-width="2"></path><path d="M0 466.36C8.46 466.36 32.4 501.26 32.4 540C32.4 628.08 8.16 720 0 720C-8.04 720 0 630 0 540C0 503.18 -7.74 466.36 0 466.36" stroke="rgba(194, 51, 151, 0.58)" stroke-width="2"></path><path d="M1434.38 540C1434.38 420.51 1521.88 335.17 1620 335.17C1728.92 335.17 1848.46 414.92 1848.46 540C1848.46 754.94 1725.23 1015.2 1620 1015.2C1518.19 1015.2 1434.38 760.53 1434.38 540" stroke="rgba(194, 51, 151, 0.58)" stroke-width="2"></path><path d="M2160 102.16C2097.53 86.7 2072.09 30.92 2072.09 0C2072.09 -20.16 2116.05 0 2160 0C2430 0 2430 0 2700 0C2814 0 2928 -35.16 2928 0C2928 42.56 2829.45 138.23 2700 155.45C2445.45 189.31 2411.49 164.42 2160 102.16" stroke="rgba(194, 51, 151, 0.58)" stroke-width="2"></path><path d="M3116.07 540C3116.07 448.79 3182.05 351 3240 351C3295.09 351 3342.16 448.02 3342.16 540C3342.16 618.12 3294.58 691.2 3240 691.2C3181.53 691.2 3116.07 618.89 3116.07 540" stroke="rgba(194, 51, 151, 0.58)" stroke-width="2"></path><path d="M162 1080C162 1010.66 365.79 956.07 540 956.07C616.75 956.07 663.93 1014.35 663.93 1080C663.93 1155.07 622.46 1237.5 540 1237.5C371.5 1237.5 162 1151.38 162 1080" stroke="rgba(194, 51, 151, 0.58)" stroke-width="2"></path><path d="M4217.59 1080C4248.47 910.83 4293.81 750 4320 750C4345.01 750 4320 915 4320 1080C4320 1350 4320 1350 4320 1620C4320 1662.19 4345.36 1704.38 4320 1704.38C4265.95 1704.38 4173.92 1697.68 4161.18 1620C4122.72 1385.49 4169.06 1345.83 4217.59 1080" stroke="rgba(194, 51, 151, 0.58)" stroke-width="2"></path><path d="M0 1282.5C31.63 1282.5 122.73 1473.94 122.73 1620C122.73 1677.31 41.15 1689.23 0 1689.23C-20.22 1689.23 0 1654.61 0 1620C0 1451.25 -29.73 1282.5 0 1282.5" stroke="rgba(194, 51, 151, 0.58)" stroke-width="2"></path><path d="M893.08 1620C893.08 1522.38 986.54 1470.46 1080 1470.46C1173.46 1470.46 1266.92 1522.38 1266.92 1620C1266.92 1808.45 1173.46 2042.61 1080 2042.61C986.54 2042.61 893.08 1808.45 893.08 1620" stroke="rgba(194, 51, 151, 0.58)" stroke-width="2"></path><path d="M2079 1620C2079 1579.49 2101.09 1525.24 2160 1521.82C2411.59 1507.24 2432.92 1600.81 2700 1584C2972.92 1566.82 2986.41 1441.77 3240 1453.85C3364.41 1459.77 3435.47 1502.71 3456 1620C3497.27 1855.79 3451.73 1939.7 3363.61 2160C3343.73 2209.7 3301.81 2160 3240 2160C2970 2160 2970 2160 2700 2160C2638.13 2160 2619.42 2199.93 2576.25 2160C2349.42 1950.18 2378.23 1897.49 2160 1660.5C2129.6 1627.49 2079 1648.83 2079 1620" stroke="rgba(194, 51, 151, 0.58)" stroke-width="2"></path><path d="M459 2160C459 2113 473.99 2019.13 540 2019.13C705.08 2019.13 921.18 2123.66 921.18 2160C921.18 2194.09 730.59 2160 540 2160C499.5 2160 459 2183.43 459 2160" stroke="rgba(194, 51, 151, 0.58)" stroke-width="2"></path><path d="M1350 2160C1350 2142.42 1500.9 2090.77 1620 2090.77C1652.99 2090.77 1654.18 2136.01 1654.18 2160C1654.18 2170.62 1637.09 2160 1620 2160C1485 2160 1350 2177.03 1350 2160" stroke="rgba(194, 51, 151, 0.58)" stroke-width="2"></path></g><defs><mask id="SvgjsMask1232"><rect width="3840" height="2160" fill="#ffffff"></rect></mask><linearGradient x1="50%" y1="0%" x2="50%" y2="100%" gradientUnits="userSpaceOnUse" id="SvgjsLinearGradient1233"><stop stop-color="rgba(72, 13, 69, 1)" offset="0"></stop><stop stop-color="rgba(22, 3, 51, 1)" offset="1"></stop></linearGradient></defs></svg>